<svg xmlns="http://www.w3.org/2000/svg" xmlns:xlink="http://www.w3.org/1999/xlink" width="56" zoomAndPan="magnify" viewBox="0 0 42.75 42.749999" height="56" preserveAspectRatio="xMidYMid meet" version="1.0"><defs><clipPath id="11f9068f55"><path d="M 2.125 0 L 40.375 0 L 40.375 33 L 2.125 33 Z M 2.125 0 " clip-rule="nonzero"/></clipPath><clipPath id="8d3e98cc8d"><path d="M 7 24 L 35 24 L 35 42.5 L 7 42.5 Z M 7 24 " clip-rule="nonzero"/></clipPath></defs><g clip-path="url(#11f9068f55)"><path fill="#000000" d="M 36.277344 8.160156 L 32.179688 8.160156 L 32.179688 1.367188 C 32.179688 0.617188 31.566406 0.0078125 30.8125 0.0078125 L 11.6875 0.0078125 C 10.933594 0.0078125 10.324219 0.617188 10.324219 1.367188 L 10.324219 8.160156 L 6.222656 8.160156 C 3.964844 8.160156 2.125 9.992188 2.125 12.238281 L 2.125 28.542969 C 2.125 30.792969 3.964844 32.621094 6.222656 32.621094 L 7.589844 32.621094 L 7.589844 29.902344 L 6.222656 29.902344 C 5.472656 29.902344 4.859375 29.292969 4.859375 28.542969 L 4.859375 12.238281 C 4.859375 11.488281 5.472656 10.878906 6.222656 10.878906 L 36.277344 10.878906 C 37.03125 10.878906 37.644531 11.488281 37.644531 12.238281 L 37.644531 28.542969 C 37.644531 29.292969 37.03125 29.902344 36.277344 29.902344 L 34.910156 29.902344 L 34.910156 32.621094 L 36.277344 32.621094 C 38.539062 32.621094 40.375 30.792969 40.375 28.542969 L 40.375 12.238281 C 40.375 9.992188 38.539062 8.160156 36.277344 8.160156 Z M 13.054688 8.160156 L 13.054688 2.726562 L 29.449219 2.726562 L 29.449219 8.160156 Z M 13.054688 8.160156 " fill-opacity="1" fill-rule="nonzero"/></g><g clip-path="url(#8d3e98cc8d)"><path fill="#000000" d="M 34.910156 27.183594 L 34.910156 24.46875 L 7.589844 24.46875 L 7.589844 27.183594 L 10.324219 27.183594 L 10.324219 42.132812 C 10.324219 42.882812 10.933594 43.492188 11.6875 43.492188 L 30.8125 43.492188 C 31.566406 43.492188 32.179688 42.882812 32.179688 42.132812 L 32.179688 27.183594 Z M 29.449219 40.773438 L 13.054688 40.773438 L 13.054688 27.183594 L 29.449219 27.183594 Z M 29.449219 40.773438 " fill-opacity="1" fill-rule="nonzero"/></g><path fill="#000000" d="M 32.179688 13.597656 L 34.910156 13.597656 L 34.910156 16.316406 L 32.179688 16.316406 Z M 32.179688 13.597656 " fill-opacity="1" fill-rule="nonzero"/><path fill="#000000" d="M 15.785156 29.902344 L 26.714844 29.902344 L 26.714844 32.621094 L 15.785156 32.621094 Z M 15.785156 29.902344 " fill-opacity="1" fill-rule="nonzero"/><path fill="#000000" d="M 15.785156 35.339844 L 26.714844 35.339844 L 26.714844 38.054688 L 15.785156 38.054688 Z M 15.785156 35.339844 " fill-opacity="1" fill-rule="nonzero"/></svg>