<svg xmlns="http://www.w3.org/2000/svg" xmlns:xlink="http://www.w3.org/1999/xlink" width="56" zoomAndPan="magnify" viewBox="0 0 42.75 42.749999" height="56" preserveAspectRatio="xMidYMid meet" version="1.0"><defs><clipPath id="20bc27e7ce"><path d="M 0.300781 2.125 L 42.300781 2.125 L 42.300781 40 L 0.300781 40 Z M 0.300781 2.125 " clip-rule="nonzero"/></clipPath></defs><path fill="#000000" d="M 25.164062 19.214844 C 25.15625 19.199219 25.148438 19.183594 25.140625 19.167969 C 25.136719 19.164062 25.132812 19.15625 25.132812 19.152344 C 25.132812 19.160156 25.136719 19.164062 25.140625 19.167969 C 25.148438 19.183594 25.15625 19.199219 25.164062 19.214844 " fill-opacity="1" fill-rule="nonzero"/><path fill="#000000" d="M 33.738281 24.929688 C 33.496094 25.441406 33.234375 25.945312 32.953125 26.4375 C 32.800781 26.703125 32.445312 26.773438 32.199219 26.589844 C 32.0625 26.4375 32.046875 26.207031 32.09375 26.011719 C 32.136719 25.8125 32.234375 25.628906 32.296875 25.433594 C 32.378906 25.179688 32.40625 24.914062 32.433594 24.652344 C 32.441406 24.589844 32.449219 24.527344 32.460938 24.464844 L 33.195312 24.734375 L 33.738281 24.929688 " fill-opacity="1" fill-rule="nonzero"/><g clip-path="url(#20bc27e7ce)"><path fill="#000000" d="M 25.140625 19.167969 C 25.136719 19.164062 25.132812 19.15625 25.132812 19.152344 C 25.144531 19.171875 25.152344 19.195312 25.164062 19.214844 C 25.15625 19.199219 25.148438 19.183594 25.140625 19.167969 Z M 39.390625 14.003906 C 38.574219 13.117188 38.558594 11.898438 38.417969 10.78125 C 38.417969 10.78125 35.640625 9.773438 35.640625 9.773438 C 36.550781 14.410156 40.601562 14.316406 36.792969 20.566406 L 38.972656 21.359375 L 38.445312 25.460938 C 37.113281 24.148438 35.015625 24.597656 33.765625 22.875 C 32.855469 22.382812 31.660156 22.695312 30.894531 21.863281 C 29.691406 20.941406 27.832031 21.863281 26.707031 20.707031 C 26.375 20.394531 26.15625 19.980469 26.179688 19.535156 C 26.367188 18.484375 25.714844 18.390625 25.089844 19.074219 C 24.144531 19.710938 22.945312 19.230469 22.378906 18.34375 C 21.613281 18.089844 20.75 18.113281 20.234375 17.34375 C 19.695312 16.886719 20 15.769531 19.027344 15.730469 C 18.796875 15.726562 18.570312 15.796875 18.375 15.921875 C 17.71875 16.335938 16.964844 16.191406 16.242188 16.132812 C 15.261719 16.050781 14.269531 16.144531 13.320312 16.398438 L 12.847656 16.222656 L 13.382812 12.042969 C 17.652344 14 14.347656 10.820312 21.855469 10.964844 C 24.730469 10.617188 27.996094 10.960938 29.367188 13.894531 C 30.164062 15.363281 31.316406 16.960938 31.566406 18.664062 L 33.21875 19.265625 C 33.726562 17.910156 34.804688 16.351562 34.59375 14.871094 C 34.371094 14.140625 33.5625 13.582031 32.984375 13.132812 C 32.421875 12.691406 31.867188 12.257812 31.417969 11.699219 C 30.238281 10.503906 28.808594 9.34375 29.277344 7.460938 L 27.679688 6.882812 C 26.59375 8.605469 24.988281 9.59375 22.914062 9.34375 C 19.539062 9.175781 16.175781 8.230469 12.785156 8.589844 C 13.175781 9.640625 12.289062 14.929688 12.117188 16.398438 C 12.066406 16.765625 12.285156 17.121094 12.636719 17.25 C 13.335938 17.511719 18.238281 19.28125 18.785156 19.488281 C 19.808594 19.867188 32.601562 24.511719 33.195312 24.734375 C 33.457031 24.835938 37.675781 26.359375 38.039062 26.496094 C 38.523438 26.671875 39.042969 26.355469 39.109375 25.847656 C 39.449219 23.480469 39.710938 19.667969 40.703125 17.496094 C 41.023438 16.921875 41.539062 16.785156 41.839844 16.1875 C 40.898438 15.585938 40.042969 14.796875 39.390625 14.003906 Z M 31.070312 18.359375 C 31.046875 18.269531 31.027344 18.183594 31 18.097656 C 30.988281 18.054688 30.976562 18.011719 30.960938 17.96875 C 30.933594 17.882812 30.90625 17.796875 30.875 17.710938 C 30.84375 17.628906 30.808594 17.542969 30.773438 17.457031 C 30.761719 17.421875 30.742188 17.382812 30.726562 17.347656 C 30.65625 17.175781 30.570312 17.003906 30.484375 16.828125 C 30.445312 16.753906 30.40625 16.675781 30.363281 16.597656 C 30.332031 16.53125 30.296875 16.464844 30.257812 16.398438 C 30.226562 16.335938 30.191406 16.277344 30.15625 16.21875 C 29.839844 15.652344 29.5 15.097656 29.214844 14.542969 C 28.382812 12.90625 27.15625 11.621094 25.246094 11.363281 C 24.308594 11.234375 23.332031 11.390625 22.386719 11.398438 C 21.460938 11.40625 20.53125 11.378906 19.605469 11.472656 C 19.542969 11.480469 19.476562 11.488281 19.40625 11.496094 C 19.367188 11.503906 19.328125 11.507812 19.292969 11.515625 C 19.226562 11.523438 19.160156 11.535156 19.09375 11.546875 C 19.019531 11.554688 18.945312 11.570312 18.871094 11.585938 C 18.789062 11.601562 18.707031 11.617188 18.625 11.636719 C 18.621094 11.636719 18.617188 11.640625 18.609375 11.640625 C 18.535156 11.660156 18.460938 11.675781 18.386719 11.695312 C 18.382812 11.699219 18.378906 11.699219 18.375 11.699219 C 18.296875 11.722656 18.21875 11.746094 18.136719 11.769531 C 18.132812 11.769531 18.125 11.773438 18.117188 11.777344 C 18.046875 11.796875 17.972656 11.824219 17.902344 11.847656 C 17.902344 11.847656 17.898438 11.847656 17.894531 11.851562 C 17.816406 11.878906 17.738281 11.90625 17.664062 11.9375 C 17.589844 11.964844 17.519531 11.996094 17.445312 12.03125 C 17.4375 12.035156 17.425781 12.039062 17.417969 12.042969 C 17.347656 12.074219 17.277344 12.105469 17.210938 12.140625 C 17.136719 12.179688 17.066406 12.21875 16.996094 12.257812 C 16.992188 12.257812 16.992188 12.257812 16.988281 12.261719 C 16.917969 12.300781 16.847656 12.34375 16.78125 12.386719 C 16.710938 12.433594 16.644531 12.476562 16.578125 12.527344 C 16.511719 12.574219 16.445312 12.621094 16.382812 12.675781 C 16.320312 12.726562 16.257812 12.78125 16.199219 12.835938 C 16.140625 12.890625 16.082031 12.949219 16.027344 13.007812 L 21.53125 15.011719 C 21.960938 14.484375 22.4375 13.972656 22.972656 13.667969 C 23.773438 13.210938 24.792969 13.722656 25.570312 14.015625 C 26.367188 14.3125 27.238281 14.625 27.777344 15.3125 C 28.328125 16.023438 28.722656 16.910156 29.105469 17.765625 L 31.097656 18.492188 C 31.089844 18.445312 31.082031 18.402344 31.070312 18.359375 Z M 27.910156 16.394531 C 27.664062 15.914062 27.421875 15.457031 26.96875 15.136719 C 26.597656 14.875 26.132812 14.695312 25.710938 14.53125 C 24.832031 14.183594 23.660156 13.589844 22.84375 14.316406 C 22.546875 14.585938 22.265625 14.875 21.996094 15.179688 L 28.488281 17.542969 C 28.296875 17.15625 28.105469 16.773438 27.910156 16.394531 Z M 25.140625 19.167969 C 25.136719 19.164062 25.132812 19.160156 25.132812 19.152344 C 25.132812 19.15625 25.136719 19.164062 25.140625 19.167969 C 25.148438 19.183594 25.15625 19.199219 25.164062 19.214844 C 25.15625 19.199219 25.148438 19.183594 25.140625 19.167969 Z M 20.089844 17.140625 C 20.105469 17.191406 20.125 17.242188 20.144531 17.292969 L 20.230469 17.34375 C 20.179688 17.277344 20.128906 17.207031 20.089844 17.140625 Z M 27.910156 16.394531 C 27.664062 15.914062 27.421875 15.457031 26.96875 15.136719 C 26.597656 14.875 26.132812 14.695312 25.710938 14.53125 C 24.832031 14.183594 23.660156 13.589844 22.84375 14.316406 C 22.546875 14.585938 22.265625 14.875 21.996094 15.179688 L 28.488281 17.542969 C 28.296875 17.15625 28.105469 16.773438 27.910156 16.394531 Z M 31.070312 18.359375 C 31.046875 18.269531 31.027344 18.183594 31 18.097656 C 30.988281 18.054688 30.976562 18.011719 30.960938 17.96875 C 30.933594 17.882812 30.90625 17.796875 30.875 17.710938 C 30.84375 17.628906 30.808594 17.542969 30.773438 17.457031 C 30.761719 17.421875 30.742188 17.382812 30.726562 17.347656 C 30.65625 17.175781 30.570312 17.003906 30.484375 16.828125 C 30.445312 16.753906 30.40625 16.675781 30.363281 16.597656 C 30.332031 16.53125 30.296875 16.464844 30.257812 16.398438 C 30.226562 16.335938 30.191406 16.277344 30.15625 16.21875 C 29.839844 15.652344 29.5 15.097656 29.214844 14.542969 C 28.382812 12.90625 27.15625 11.621094 25.246094 11.363281 C 24.308594 11.234375 23.332031 11.390625 22.386719 11.398438 C 21.460938 11.40625 20.53125 11.378906 19.605469 11.472656 C 19.542969 11.480469 19.476562 11.488281 19.40625 11.496094 C 19.367188 11.503906 19.328125 11.507812 19.292969 11.515625 C 19.226562 11.523438 19.160156 11.535156 19.09375 11.546875 C 19.019531 11.554688 18.945312 11.570312 18.871094 11.585938 C 18.789062 11.601562 18.707031 11.617188 18.625 11.636719 C 18.621094 11.636719 18.617188 11.640625 18.609375 11.640625 C 18.535156 11.660156 18.460938 11.675781 18.386719 11.695312 C 18.382812 11.699219 18.378906 11.699219 18.375 11.699219 C 18.296875 11.722656 18.21875 11.746094 18.136719 11.769531 C 18.132812 11.769531 18.125 11.773438 18.117188 11.777344 C 18.046875 11.796875 17.972656 11.824219 17.902344 11.847656 C 17.902344 11.847656 17.898438 11.847656 17.894531 11.851562 C 17.816406 11.878906 17.738281 11.90625 17.664062 11.9375 C 17.589844 11.964844 17.519531 11.996094 17.445312 12.03125 C 17.4375 12.035156 17.425781 12.039062 17.417969 12.042969 C 17.347656 12.074219 17.277344 12.105469 17.210938 12.140625 C 17.136719 12.179688 17.066406 12.21875 16.996094 12.257812 C 16.992188 12.257812 16.992188 12.257812 16.988281 12.261719 C 16.917969 12.300781 16.847656 12.34375 16.78125 12.386719 C 16.710938 12.433594 16.644531 12.476562 16.578125 12.527344 C 16.511719 12.574219 16.445312 12.621094 16.382812 12.675781 C 16.320312 12.722656 16.261719 12.777344 16.199219 12.835938 C 16.140625 12.890625 16.082031 12.949219 16.027344 13.007812 L 21.53125 15.011719 C 21.960938 14.484375 22.4375 13.972656 22.972656 13.667969 C 23.773438 13.210938 24.792969 13.722656 25.570312 14.015625 C 26.367188 14.3125 27.238281 14.625 27.777344 15.3125 C 28.328125 16.023438 28.722656 16.910156 29.105469 17.765625 L 31.097656 18.492188 C 31.089844 18.445312 31.082031 18.402344 31.070312 18.359375 Z M 31.070312 18.359375 C 31.046875 18.269531 31.027344 18.183594 31 18.097656 C 30.988281 18.054688 30.976562 18.011719 30.960938 17.96875 C 30.933594 17.882812 30.90625 17.796875 30.875 17.710938 C 30.84375 17.628906 30.808594 17.542969 30.773438 17.457031 C 30.761719 17.421875 30.742188 17.382812 30.726562 17.347656 C 30.65625 17.175781 30.570312 17.003906 30.484375 16.828125 C 30.445312 16.753906 30.40625 16.675781 30.363281 16.597656 C 30.332031 16.53125 30.296875 16.464844 30.257812 16.398438 C 30.226562 16.335938 30.191406 16.277344 30.15625 16.21875 C 29.839844 15.652344 29.5 15.097656 29.214844 14.542969 C 28.382812 12.90625 27.15625 11.621094 25.246094 11.363281 C 24.308594 11.234375 23.332031 11.390625 22.386719 11.398438 C 21.460938 11.40625 20.53125 11.378906 19.605469 11.472656 C 19.542969 11.480469 19.476562 11.488281 19.40625 11.496094 C 19.367188 11.503906 19.328125 11.507812 19.292969 11.515625 C 19.226562 11.523438 19.160156 11.535156 19.09375 11.546875 C 19.019531 11.554688 18.945312 11.570312 18.871094 11.585938 C 18.789062 11.601562 18.707031 11.617188 18.625 11.636719 C 18.621094 11.636719 18.617188 11.640625 18.609375 11.640625 C 18.535156 11.660156 18.460938 11.675781 18.386719 11.695312 C 18.382812 11.699219 18.378906 11.699219 18.375 11.699219 C 18.296875 11.722656 18.21875 11.746094 18.136719 11.769531 C 18.132812 11.769531 18.125 11.773438 18.117188 11.777344 C 18.046875 11.796875 17.972656 11.824219 17.902344 11.847656 C 17.902344 11.847656 17.898438 11.847656 17.894531 11.851562 C 17.816406 11.878906 17.738281 11.90625 17.664062 11.9375 C 17.589844 11.964844 17.519531 11.996094 17.445312 12.03125 C 17.4375 12.035156 17.425781 12.039062 17.417969 12.042969 C 17.347656 12.074219 17.277344 12.105469 17.210938 12.140625 C 17.136719 12.179688 17.066406 12.21875 16.996094 12.257812 C 16.992188 12.257812 16.992188 12.257812 16.988281 12.261719 C 16.917969 12.300781 16.847656 12.34375 16.78125 12.386719 C 16.710938 12.433594 16.644531 12.476562 16.578125 12.527344 C 16.511719 12.574219 16.445312 12.621094 16.382812 12.675781 C 16.320312 12.722656 16.261719 12.777344 16.199219 12.835938 C 16.140625 12.890625 16.082031 12.949219 16.027344 13.007812 L 21.53125 15.011719 C 21.960938 14.484375 22.4375 13.972656 22.972656 13.667969 C 23.773438 13.210938 24.792969 13.722656 25.570312 14.015625 C 26.367188 14.3125 27.238281 14.625 27.777344 15.3125 C 28.328125 16.023438 28.722656 16.910156 29.105469 17.765625 L 31.097656 18.492188 C 31.089844 18.445312 31.082031 18.402344 31.070312 18.359375 Z M 27.910156 16.394531 C 27.664062 15.914062 27.421875 15.457031 26.96875 15.136719 C 26.597656 14.875 26.132812 14.695312 25.710938 14.53125 C 24.832031 14.183594 23.660156 13.589844 22.84375 14.316406 C 22.546875 14.585938 22.265625 14.875 21.996094 15.179688 L 28.488281 17.542969 C 28.296875 17.15625 28.105469 16.773438 27.910156 16.394531 Z M 25.140625 19.167969 C 25.136719 19.164062 25.132812 19.160156 25.132812 19.152344 C 25.132812 19.15625 25.136719 19.164062 25.140625 19.167969 C 25.148438 19.183594 25.15625 19.199219 25.164062 19.214844 C 25.15625 19.199219 25.148438 19.183594 25.140625 19.167969 Z M 20.089844 17.140625 C 20.105469 17.191406 20.125 17.242188 20.144531 17.292969 L 20.230469 17.34375 C 20.179688 17.277344 20.128906 17.207031 20.089844 17.140625 Z M 27.910156 16.394531 C 27.664062 15.914062 27.421875 15.457031 26.96875 15.136719 C 26.597656 14.875 26.132812 14.695312 25.710938 14.53125 C 24.832031 14.183594 23.660156 13.589844 22.84375 14.316406 C 22.546875 14.585938 22.265625 14.875 21.996094 15.179688 L 28.488281 17.542969 C 28.296875 17.15625 28.105469 16.773438 27.910156 16.394531 Z M 31.070312 18.359375 C 31.046875 18.269531 31.027344 18.183594 31 18.097656 C 30.988281 18.054688 30.976562 18.011719 30.960938 17.96875 C 30.933594 17.882812 30.90625 17.796875 30.875 17.710938 C 30.84375 17.628906 30.808594 17.542969 30.773438 17.457031 C 30.761719 17.421875 30.742188 17.382812 30.726562 17.347656 C 30.65625 17.175781 30.570312 17.003906 30.484375 16.828125 C 30.445312 16.753906 30.40625 16.675781 30.363281 16.597656 C 30.332031 16.53125 30.296875 16.464844 30.257812 16.398438 C 30.226562 16.335938 30.191406 16.277344 30.15625 16.21875 C 29.839844 15.652344 29.5 15.097656 29.214844 14.542969 C 28.382812 12.90625 27.15625 11.621094 25.246094 11.363281 C 24.308594 11.234375 23.332031 11.390625 22.386719 11.398438 C 21.460938 11.40625 20.53125 11.378906 19.605469 11.472656 C 19.542969 11.480469 19.476562 11.488281 19.40625 11.496094 C 19.367188 11.503906 19.328125 11.507812 19.292969 11.515625 C 19.226562 11.523438 19.160156 11.535156 19.09375 11.546875 C 19.019531 11.554688 18.945312 11.570312 18.871094 11.585938 C 18.789062 11.601562 18.707031 11.617188 18.625 11.636719 C 18.621094 11.636719 18.617188 11.640625 18.609375 11.640625 C 18.535156 11.660156 18.460938 11.675781 18.386719 11.695312 C 18.382812 11.699219 18.378906 11.699219 18.375 11.699219 C 18.296875 11.722656 18.21875 11.746094 18.136719 11.769531 C 18.132812 11.769531 18.125 11.773438 18.117188 11.777344 C 18.046875 11.796875 17.972656 11.824219 17.902344 11.847656 C 17.902344 11.847656 17.898438 11.847656 17.894531 11.851562 C 17.816406 11.878906 17.738281 11.90625 17.664062 11.9375 C 17.589844 11.964844 17.519531 11.996094 17.445312 12.03125 C 17.4375 12.035156 17.425781 12.039062 17.417969 12.042969 C 17.347656 12.074219 17.277344 12.105469 17.210938 12.140625 C 17.136719 12.179688 17.066406 12.21875 16.996094 12.257812 C 16.992188 12.257812 16.992188 12.257812 16.988281 12.261719 C 16.917969 12.300781 16.847656 12.34375 16.78125 12.386719 C 16.710938 12.433594 16.644531 12.476562 16.578125 12.527344 C 16.511719 12.574219 16.445312 12.621094 16.382812 12.675781 C 16.320312 12.722656 16.261719 12.777344 16.199219 12.835938 C 16.140625 12.890625 16.082031 12.949219 16.027344 13.007812 L 21.53125 15.011719 C 21.960938 14.484375 22.4375 13.972656 22.972656 13.667969 C 23.773438 13.210938 24.792969 13.722656 25.570312 14.015625 C 26.367188 14.3125 27.238281 14.625 27.777344 15.3125 C 28.328125 16.023438 28.722656 16.910156 29.105469 17.765625 L 31.097656 18.492188 C 31.089844 18.445312 31.082031 18.402344 31.070312 18.359375 Z M 31.070312 18.359375 C 31.046875 18.269531 31.027344 18.183594 31 18.097656 C 30.988281 18.054688 30.976562 18.011719 30.960938 17.96875 C 30.933594 17.882812 30.90625 17.796875 30.875 17.710938 C 30.84375 17.628906 30.808594 17.542969 30.773438 17.457031 C 30.761719 17.421875 30.742188 17.382812 30.726562 17.347656 C 30.65625 17.175781 30.570312 17.003906 30.484375 16.828125 C 30.445312 16.753906 30.40625 16.675781 30.363281 16.597656 C 30.332031 16.53125 30.296875 16.464844 30.257812 16.398438 C 30.226562 16.335938 30.191406 16.277344 30.15625 16.21875 C 29.839844 15.652344 29.5 15.097656 29.214844 14.542969 C 28.382812 12.90625 27.15625 11.621094 25.246094 11.363281 C 24.308594 11.234375 23.332031 11.390625 22.386719 11.398438 C 21.460938 11.40625 20.53125 11.378906 19.605469 11.472656 C 19.542969 11.480469 19.476562 11.488281 19.40625 11.496094 C 19.367188 11.503906 19.328125 11.507812 19.292969 11.515625 C 19.226562 11.523438 19.160156 11.535156 19.09375 11.546875 C 19.019531 11.554688 18.945312 11.570312 18.871094 11.585938 C 18.789062 11.601562 18.707031 11.617188 18.625 11.636719 C 18.621094 11.636719 18.617188 11.640625 18.609375 11.640625 C 18.535156 11.660156 18.460938 11.675781 18.386719 11.695312 C 18.382812 11.699219 18.378906 11.699219 18.375 11.699219 C 18.296875 11.722656 18.21875 11.746094 18.136719 11.769531 C 18.132812 11.769531 18.125 11.773438 18.117188 11.777344 C 18.046875 11.796875 17.972656 11.824219 17.902344 11.847656 C 17.902344 11.847656 17.898438 11.847656 17.894531 11.851562 C 17.816406 11.878906 17.738281 11.90625 17.664062 11.9375 C 17.589844 11.964844 17.519531 11.996094 17.445312 12.03125 C 17.4375 12.035156 17.425781 12.039062 17.417969 12.042969 C 17.347656 12.074219 17.277344 12.105469 17.210938 12.140625 C 17.136719 12.179688 17.066406 12.21875 16.996094 12.257812 C 16.992188 12.257812 16.992188 12.257812 16.988281 12.261719 C 16.917969 12.300781 16.847656 12.34375 16.78125 12.386719 C 16.710938 12.433594 16.644531 12.476562 16.578125 12.527344 C 16.511719 12.574219 16.445312 12.621094 16.382812 12.675781 C 16.320312 12.722656 16.261719 12.777344 16.199219 12.835938 C 16.140625 12.890625 16.082031 12.949219 16.027344 13.007812 L 21.53125 15.011719 C 21.960938 14.484375 22.4375 13.972656 22.972656 13.667969 C 23.773438 13.210938 24.792969 13.722656 25.570312 14.015625 C 26.367188 14.3125 27.238281 14.625 27.777344 15.3125 C 28.328125 16.023438 28.722656 16.910156 29.105469 17.765625 L 31.097656 18.492188 C 31.089844 18.445312 31.082031 18.402344 31.070312 18.359375 Z M 27.910156 16.394531 C 27.664062 15.914062 27.421875 15.457031 26.96875 15.136719 C 26.597656 14.875 26.132812 14.695312 25.710938 14.53125 C 24.832031 14.183594 23.660156 13.589844 22.84375 14.316406 C 22.546875 14.585938 22.265625 14.875 21.996094 15.179688 L 28.488281 17.542969 C 28.296875 17.15625 28.105469 16.773438 27.910156 16.394531 Z M 20.089844 17.140625 C 20.105469 17.191406 20.125 17.242188 20.144531 17.292969 L 20.230469 17.34375 C 20.179688 17.277344 20.128906 17.207031 20.089844 17.140625 Z M 27.910156 16.394531 C 27.664062 15.914062 27.421875 15.457031 26.96875 15.136719 C 26.597656 14.875 26.132812 14.695312 25.710938 14.53125 C 24.832031 14.183594 23.660156 13.589844 22.84375 14.316406 C 22.546875 14.585938 22.265625 14.875 21.996094 15.179688 L 28.488281 17.542969 C 28.296875 17.15625 28.105469 16.773438 27.910156 16.394531 Z M 31.070312 18.359375 C 31.046875 18.269531 31.027344 18.183594 31 18.097656 C 30.988281 18.054688 30.976562 18.011719 30.960938 17.96875 C 30.933594 17.882812 30.90625 17.796875 30.875 17.710938 C 30.84375 17.628906 30.808594 17.542969 30.773438 17.457031 C 30.761719 17.421875 30.742188 17.382812 30.726562 17.347656 C 30.65625 17.175781 30.570312 17.003906 30.484375 16.828125 C 30.445312 16.753906 30.40625 16.675781 30.363281 16.597656 C 30.332031 16.53125 30.296875 16.464844 30.257812 16.398438 C 30.226562 16.335938 30.191406 16.277344 30.15625 16.21875 C 29.839844 15.652344 29.5 15.097656 29.214844 14.542969 C 28.382812 12.90625 27.15625 11.621094 25.246094 11.363281 C 24.308594 11.234375 23.332031 11.390625 22.386719 11.398438 C 21.460938 11.40625 20.53125 11.378906 19.605469 11.472656 C 19.542969 11.480469 19.476562 11.488281 19.40625 11.496094 C 19.367188 11.503906 19.328125 11.507812 19.292969 11.515625 C 19.226562 11.523438 19.160156 11.535156 19.09375 11.546875 C 19.019531 11.554688 18.945312 11.570312 18.871094 11.585938 C 18.789062 11.601562 18.707031 11.617188 18.625 11.636719 C 18.621094 11.636719 18.617188 11.640625 18.609375 11.640625 C 18.535156 11.660156 18.460938 11.675781 18.386719 11.695312 C 18.382812 11.699219 18.378906 11.699219 18.375 11.699219 C 18.296875 11.722656 18.21875 11.746094 18.136719 11.769531 C 18.132812 11.769531 18.125 11.773438 18.117188 11.777344 C 18.046875 11.796875 17.972656 11.824219 17.902344 11.847656 C 17.902344 11.847656 17.898438 11.847656 17.894531 11.851562 C 17.816406 11.878906 17.738281 11.90625 17.664062 11.9375 C 17.589844 11.964844 17.519531 11.996094 17.445312 12.03125 C 17.4375 12.035156 17.425781 12.039062 17.417969 12.042969 C 17.347656 12.074219 17.277344 12.105469 17.210938 12.140625 C 17.136719 12.179688 17.066406 12.21875 16.996094 12.257812 C 16.992188 12.257812 16.992188 12.257812 16.988281 12.261719 C 16.917969 12.300781 16.847656 12.34375 16.78125 12.386719 C 16.710938 12.433594 16.644531 12.476562 16.578125 12.527344 C 16.511719 12.574219 16.445312 12.621094 16.382812 12.675781 C 16.320312 12.722656 16.261719 12.777344 16.199219 12.835938 C 16.140625 12.890625 16.082031 12.949219 16.027344 13.007812 L 21.53125 15.011719 C 21.960938 14.484375 22.4375 13.972656 22.972656 13.667969 C 23.773438 13.210938 24.792969 13.722656 25.570312 14.015625 C 26.367188 14.3125 27.238281 14.625 27.777344 15.3125 C 28.328125 16.023438 28.722656 16.910156 29.105469 17.765625 L 31.097656 18.492188 C 31.089844 18.445312 31.082031 18.402344 31.070312 18.359375 Z M 36.976562 13.589844 C 36.050781 12.328125 35.410156 11.042969 35.199219 9.613281 L 29.675781 7.605469 C 29.582031 8.3125 29.625 9.003906 30.007812 9.628906 C 30.382812 10.238281 31.082031 10.574219 31.527344 11.136719 C 32.023438 11.769531 32.570312 12.265625 33.203125 12.757812 C 34.117188 13.46875 35.277344 14.328125 35.042969 15.628906 C 34.816406 16.910156 34.226562 18.21875 33.628906 19.414062 L 36.375 20.414062 C 37.054688 19.675781 37.488281 18.449219 37.703125 17.679688 C 38.121094 16.203125 37.886719 14.824219 36.976562 13.589844 Z M 41.113281 11.785156 L 41.117188 11.761719 L 41.023438 11.726562 C 40.851562 11.628906 40.667969 11.558594 40.476562 11.527344 L 38.917969 10.960938 C 39.011719 11.808594 38.976562 12.640625 39.46875 13.390625 C 39.90625 14.0625 40.566406 14.589844 41.175781 15.097656 C 41.457031 15.335938 41.746094 15.5625 42.042969 15.769531 C 42.207031 15.355469 42.296875 14.882812 42.296875 14.382812 C 42.296875 13.234375 41.816406 12.246094 41.113281 11.785156 Z M 27.910156 16.394531 C 27.664062 15.914062 27.421875 15.457031 26.96875 15.136719 C 26.597656 14.875 26.132812 14.695312 25.710938 14.53125 C 24.832031 14.183594 23.660156 13.589844 22.84375 14.316406 C 22.546875 14.585938 22.265625 14.875 21.996094 15.179688 L 28.488281 17.542969 C 28.296875 17.15625 28.105469 16.773438 27.910156 16.394531 Z M 31.070312 18.359375 C 31.046875 18.269531 31.027344 18.183594 31 18.097656 C 30.988281 18.054688 30.976562 18.011719 30.960938 17.96875 C 30.933594 17.882812 30.90625 17.796875 30.875 17.710938 C 30.84375 17.628906 30.808594 17.542969 30.773438 17.457031 C 30.761719 17.421875 30.742188 17.382812 30.726562 17.347656 C 30.65625 17.175781 30.570312 17.003906 30.484375 16.828125 C 30.445312 16.753906 30.40625 16.675781 30.363281 16.597656 C 30.332031 16.53125 30.296875 16.464844 30.257812 16.398438 C 30.226562 16.335938 30.191406 16.277344 30.15625 16.21875 C 29.839844 15.652344 29.5 15.097656 29.214844 14.542969 C 28.382812 12.90625 27.15625 11.621094 25.246094 11.363281 C 24.308594 11.234375 23.332031 11.390625 22.386719 11.398438 C 21.460938 11.40625 20.53125 11.378906 19.605469 11.472656 C 19.542969 11.480469 19.476562 11.488281 19.40625 11.496094 C 19.367188 11.503906 19.328125 11.507812 19.292969 11.515625 C 19.226562 11.523438 19.160156 11.535156 19.09375 11.546875 C 19.019531 11.554688 18.945312 11.570312 18.871094 11.585938 C 18.789062 11.601562 18.707031 11.617188 18.625 11.636719 C 18.621094 11.636719 18.617188 11.640625 18.609375 11.640625 C 18.535156 11.660156 18.460938 11.675781 18.386719 11.695312 C 18.382812 11.699219 18.378906 11.699219 18.375 11.699219 C 18.296875 11.722656 18.21875 11.746094 18.136719 11.769531 C 18.132812 11.769531 18.125 11.773438 18.117188 11.777344 C 18.046875 11.796875 17.972656 11.824219 17.902344 11.847656 C 17.902344 11.847656 17.898438 11.847656 17.894531 11.851562 C 17.816406 11.878906 17.738281 11.90625 17.664062 11.9375 C 17.589844 11.964844 17.519531 11.996094 17.445312 12.03125 C 17.4375 12.035156 17.425781 12.039062 17.417969 12.042969 C 17.347656 12.074219 17.277344 12.105469 17.210938 12.140625 C 17.136719 12.179688 17.066406 12.21875 16.996094 12.257812 C 16.992188 12.257812 16.992188 12.257812 16.988281 12.261719 C 16.917969 12.300781 16.847656 12.34375 16.78125 12.386719 C 16.710938 12.433594 16.644531 12.476562 16.578125 12.527344 C 16.511719 12.574219 16.445312 12.621094 16.382812 12.675781 C 16.320312 12.722656 16.261719 12.777344 16.199219 12.835938 C 16.140625 12.890625 16.082031 12.949219 16.027344 13.007812 L 21.53125 15.011719 C 21.960938 14.484375 22.4375 13.972656 22.972656 13.667969 C 23.773438 13.210938 24.792969 13.722656 25.570312 14.015625 C 26.367188 14.3125 27.238281 14.625 27.777344 15.3125 C 28.328125 16.023438 28.722656 16.910156 29.105469 17.765625 L 31.097656 18.492188 C 31.089844 18.445312 31.082031 18.402344 31.070312 18.359375 Z M 27.910156 16.394531 C 27.664062 15.914062 27.421875 15.457031 26.96875 15.136719 C 26.597656 14.875 26.132812 14.695312 25.710938 14.53125 C 24.832031 14.183594 23.660156 13.589844 22.84375 14.316406 C 22.546875 14.585938 22.265625 14.875 21.996094 15.179688 L 28.488281 17.542969 C 28.296875 17.15625 28.105469 16.773438 27.910156 16.394531 Z M 31.070312 18.359375 C 31.046875 18.269531 31.027344 18.183594 31 18.097656 C 30.988281 18.054688 30.976562 18.011719 30.960938 17.96875 C 30.933594 17.882812 30.90625 17.796875 30.875 17.710938 C 30.84375 17.628906 30.808594 17.542969 30.773438 17.457031 C 30.761719 17.421875 30.742188 17.382812 30.726562 17.347656 C 30.65625 17.175781 30.570312 17.003906 30.484375 16.828125 C 30.445312 16.753906 30.40625 16.675781 30.363281 16.597656 C 30.332031 16.53125 30.296875 16.464844 30.257812 16.398438 C 30.226562 16.335938 30.191406 16.277344 30.15625 16.21875 C 29.839844 15.652344 29.5 15.097656 29.214844 14.542969 C 28.382812 12.90625 27.15625 11.621094 25.246094 11.363281 C 24.308594 11.234375 23.332031 11.390625 22.386719 11.398438 C 21.460938 11.40625 20.53125 11.378906 19.605469 11.472656 C 19.542969 11.480469 19.476562 11.488281 19.40625 11.496094 C 19.367188 11.503906 19.328125 11.507812 19.292969 11.515625 C 19.226562 11.523438 19.160156 11.535156 19.09375 11.546875 C 19.019531 11.554688 18.945312 11.570312 18.871094 11.585938 C 18.789062 11.601562 18.707031 11.617188 18.625 11.636719 C 18.621094 11.636719 18.617188 11.640625 18.609375 11.640625 C 18.535156 11.660156 18.460938 11.675781 18.386719 11.695312 C 18.382812 11.699219 18.378906 11.699219 18.375 11.699219 C 18.296875 11.722656 18.21875 11.746094 18.136719 11.769531 C 18.132812 11.769531 18.125 11.773438 18.117188 11.777344 C 18.046875 11.796875 17.972656 11.824219 17.902344 11.847656 C 17.902344 11.847656 17.898438 11.847656 17.894531 11.851562 C 17.816406 11.878906 17.738281 11.90625 17.664062 11.9375 C 17.589844 11.964844 17.519531 11.996094 17.445312 12.03125 C 17.4375 12.035156 17.425781 12.039062 17.417969 12.042969 C 17.347656 12.074219 17.277344 12.105469 17.210938 12.140625 C 17.136719 12.179688 17.066406 12.21875 16.996094 12.257812 C 16.992188 12.257812 16.992188 12.257812 16.988281 12.261719 C 16.917969 12.300781 16.847656 12.34375 16.78125 12.386719 C 16.710938 12.433594 16.644531 12.476562 16.578125 12.527344 C 16.511719 12.574219 16.445312 12.621094 16.382812 12.675781 C 16.320312 12.722656 16.261719 12.777344 16.199219 12.835938 C 16.140625 12.890625 16.082031 12.949219 16.027344 13.007812 L 21.53125 15.011719 C 21.960938 14.484375 22.4375 13.972656 22.972656 13.667969 C 23.773438 13.210938 24.792969 13.722656 25.570312 14.015625 C 26.367188 14.3125 27.238281 14.625 27.777344 15.3125 C 28.328125 16.023438 28.722656 16.910156 29.105469 17.765625 L 31.097656 18.492188 C 31.089844 18.445312 31.082031 18.402344 31.070312 18.359375 Z M 27.910156 16.394531 C 27.664062 15.914062 27.421875 15.457031 26.96875 15.136719 C 26.597656 14.875 26.132812 14.695312 25.710938 14.53125 C 24.832031 14.183594 23.660156 13.589844 22.84375 14.316406 C 22.546875 14.585938 22.265625 14.875 21.996094 15.179688 L 28.488281 17.542969 C 28.296875 17.15625 28.105469 16.773438 27.910156 16.394531 Z M 31.070312 18.359375 C 31.046875 18.269531 31.027344 18.183594 31 18.097656 C 30.988281 18.054688 30.976562 18.011719 30.960938 17.96875 C 30.933594 17.882812 30.90625 17.796875 30.875 17.710938 C 30.84375 17.628906 30.808594 17.542969 30.773438 17.457031 C 30.761719 17.421875 30.742188 17.382812 30.726562 17.347656 C 30.65625 17.175781 30.570312 17.003906 30.484375 16.828125 C 30.445312 16.753906 30.40625 16.675781 30.363281 16.597656 C 30.332031 16.53125 30.296875 16.464844 30.257812 16.398438 C 30.226562 16.335938 30.191406 16.277344 30.15625 16.21875 C 29.839844 15.652344 29.5 15.097656 29.214844 14.542969 C 28.382812 12.90625 27.15625 11.621094 25.246094 11.363281 C 24.308594 11.234375 23.332031 11.390625 22.386719 11.398438 C 21.460938 11.40625 20.53125 11.378906 19.605469 11.472656 C 19.542969 11.480469 19.476562 11.488281 19.40625 11.496094 C 19.367188 11.503906 19.328125 11.507812 19.292969 11.515625 C 19.226562 11.523438 19.160156 11.535156 19.09375 11.546875 C 19.019531 11.554688 18.945312 11.570312 18.871094 11.585938 C 18.789062 11.601562 18.707031 11.617188 18.625 11.636719 C 18.621094 11.636719 18.617188 11.640625 18.609375 11.640625 C 18.535156 11.660156 18.460938 11.675781 18.386719 11.695312 C 18.382812 11.699219 18.378906 11.699219 18.375 11.699219 C 18.296875 11.722656 18.21875 11.746094 18.136719 11.769531 C 18.132812 11.769531 18.125 11.773438 18.117188 11.777344 C 18.046875 11.796875 17.972656 11.824219 17.902344 11.847656 C 17.902344 11.847656 17.898438 11.847656 17.894531 11.851562 C 17.816406 11.878906 17.738281 11.90625 17.664062 11.9375 C 17.589844 11.964844 17.519531 11.996094 17.445312 12.03125 C 17.4375 12.035156 17.425781 12.039062 17.417969 12.042969 C 17.347656 12.074219 17.277344 12.105469 17.210938 12.140625 C 17.136719 12.179688 17.066406 12.21875 16.996094 12.257812 C 16.992188 12.257812 16.992188 12.257812 16.988281 12.261719 C 16.917969 12.300781 16.847656 12.34375 16.78125 12.386719 C 16.710938 12.433594 16.644531 12.476562 16.578125 12.527344 C 16.511719 12.574219 16.445312 12.621094 16.382812 12.675781 C 16.320312 12.722656 16.261719 12.777344 16.199219 12.835938 C 16.140625 12.890625 16.082031 12.949219 16.027344 13.007812 L 21.53125 15.011719 C 21.960938 14.484375 22.4375 13.972656 22.972656 13.667969 C 23.773438 13.210938 24.792969 13.722656 25.570312 14.015625 C 26.367188 14.3125 27.238281 14.625 27.777344 15.3125 C 28.328125 16.023438 28.722656 16.910156 29.105469 17.765625 L 31.097656 18.492188 C 31.089844 18.445312 31.082031 18.402344 31.070312 18.359375 Z M 27.910156 16.394531 C 27.664062 15.914062 27.421875 15.457031 26.96875 15.136719 C 26.597656 14.875 26.132812 14.695312 25.710938 14.53125 C 24.832031 14.183594 23.660156 13.589844 22.84375 14.316406 C 22.546875 14.585938 22.265625 14.875 21.996094 15.179688 L 28.488281 17.542969 C 28.296875 17.15625 28.105469 16.773438 27.910156 16.394531 Z M 31.070312 18.359375 C 31.046875 18.269531 31.027344 18.183594 31 18.097656 C 30.988281 18.054688 30.976562 18.011719 30.960938 17.96875 C 30.933594 17.882812 30.90625 17.796875 30.875 17.710938 C 30.84375 17.628906 30.808594 17.542969 30.773438 17.457031 C 30.761719 17.421875 30.742188 17.382812 30.726562 17.347656 C 30.65625 17.175781 30.570312 17.003906 30.484375 16.828125 C 30.445312 16.753906 30.40625 16.675781 30.363281 16.597656 C 30.332031 16.53125 30.296875 16.464844 30.257812 16.398438 C 30.226562 16.335938 30.191406 16.277344 30.15625 16.21875 C 29.839844 15.652344 29.5 15.097656 29.214844 14.542969 C 28.382812 12.90625 27.15625 11.621094 25.246094 11.363281 C 24.308594 11.234375 23.332031 11.390625 22.386719 11.398438 C 21.460938 11.40625 20.53125 11.378906 19.605469 11.472656 C 19.542969 11.480469 19.476562 11.488281 19.40625 11.496094 C 19.367188 11.503906 19.328125 11.507812 19.292969 11.515625 C 19.226562 11.523438 19.160156 11.535156 19.09375 11.546875 C 19.019531 11.554688 18.945312 11.570312 18.871094 11.585938 C 18.789062 11.601562 18.707031 11.617188 18.625 11.636719 C 18.621094 11.636719 18.617188 11.640625 18.609375 11.640625 C 18.535156 11.660156 18.460938 11.675781 18.386719 11.695312 C 18.382812 11.699219 18.378906 11.699219 18.375 11.699219 C 18.296875 11.722656 18.21875 11.746094 18.136719 11.769531 C 18.132812 11.769531 18.125 11.773438 18.117188 11.777344 C 18.046875 11.796875 17.972656 11.824219 17.902344 11.847656 C 17.902344 11.847656 17.898438 11.847656 17.894531 11.851562 C 17.816406 11.878906 17.738281 11.90625 17.664062 11.9375 C 17.589844 11.964844 17.519531 11.996094 17.445312 12.03125 C 17.4375 12.035156 17.425781 12.039062 17.417969 12.042969 C 17.347656 12.074219 17.277344 12.105469 17.210938 12.140625 C 17.136719 12.179688 17.066406 12.21875 16.996094 12.257812 C 16.992188 12.257812 16.992188 12.257812 16.988281 12.261719 C 16.917969 12.300781 16.847656 12.34375 16.78125 12.386719 C 16.710938 12.433594 16.644531 12.476562 16.578125 12.527344 C 16.511719 12.574219 16.445312 12.621094 16.382812 12.675781 C 16.320312 12.722656 16.261719 12.777344 16.199219 12.835938 C 16.140625 12.890625 16.082031 12.949219 16.027344 13.007812 L 21.53125 15.011719 C 21.960938 14.484375 22.4375 13.972656 22.972656 13.667969 C 23.773438 13.210938 24.792969 13.722656 25.570312 14.015625 C 26.367188 14.3125 27.238281 14.625 27.777344 15.3125 C 28.328125 16.023438 28.722656 16.910156 29.105469 17.765625 L 31.097656 18.492188 C 31.089844 18.445312 31.082031 18.402344 31.070312 18.359375 Z M 25.140625 19.167969 C 25.136719 19.164062 25.132812 19.160156 25.132812 19.152344 C 25.132812 19.15625 25.136719 19.164062 25.140625 19.167969 C 25.148438 19.183594 25.15625 19.199219 25.164062 19.214844 C 25.15625 19.199219 25.148438 19.183594 25.140625 19.167969 Z M 20.089844 17.140625 C 20.105469 17.191406 20.125 17.242188 20.144531 17.292969 L 20.230469 17.34375 C 20.179688 17.277344 20.128906 17.207031 20.089844 17.140625 Z M 25.140625 19.167969 C 25.136719 19.164062 25.132812 19.160156 25.132812 19.152344 C 25.132812 19.15625 25.136719 19.164062 25.140625 19.167969 C 25.148438 19.183594 25.15625 19.199219 25.164062 19.214844 C 25.15625 19.199219 25.148438 19.183594 25.140625 19.167969 Z M 31.070312 18.359375 C 31.046875 18.269531 31.027344 18.183594 31 18.097656 C 30.988281 18.054688 30.976562 18.011719 30.960938 17.96875 C 30.933594 17.882812 30.90625 17.796875 30.875 17.710938 C 30.84375 17.628906 30.808594 17.542969 30.773438 17.457031 C 30.761719 17.421875 30.742188 17.382812 30.726562 17.347656 C 30.65625 17.175781 30.570312 17.003906 30.484375 16.828125 C 30.445312 16.753906 30.40625 16.675781 30.363281 16.597656 C 30.332031 16.53125 30.296875 16.464844 30.257812 16.398438 C 30.226562 16.335938 30.191406 16.277344 30.15625 16.21875 C 29.839844 15.652344 29.5 15.097656 29.214844 14.542969 C 28.382812 12.90625 27.15625 11.621094 25.246094 11.363281 C 24.308594 11.234375 23.332031 11.390625 22.386719 11.398438 C 21.460938 11.40625 20.53125 11.378906 19.605469 11.472656 C 19.542969 11.480469 19.476562 11.488281 19.40625 11.496094 C 19.367188 11.503906 19.328125 11.507812 19.292969 11.515625 C 19.226562 11.523438 19.160156 11.535156 19.09375 11.546875 C 19.019531 11.554688 18.945312 11.570312 18.871094 11.585938 C 18.789062 11.601562 18.707031 11.617188 18.625 11.636719 C 18.621094 11.636719 18.617188 11.640625 18.609375 11.640625 C 18.535156 11.660156 18.460938 11.675781 18.386719 11.695312 C 18.382812 11.699219 18.378906 11.699219 18.375 11.699219 C 18.296875 11.722656 18.21875 11.746094 18.136719 11.769531 C 18.132812 11.769531 18.125 11.773438 18.117188 11.777344 C 18.046875 11.796875 17.972656 11.824219 17.902344 11.847656 C 17.902344 11.847656 17.898438 11.847656 17.894531 11.851562 C 17.816406 11.878906 17.738281 11.90625 17.664062 11.9375 C 17.589844 11.964844 17.519531 11.996094 17.445312 12.03125 C 17.4375 12.035156 17.425781 12.039062 17.417969 12.042969 C 17.347656 12.074219 17.277344 12.105469 17.210938 12.140625 C 17.136719 12.179688 17.066406 12.21875 16.996094 12.257812 C 16.992188 12.257812 16.992188 12.257812 16.988281 12.261719 C 16.917969 12.300781 16.847656 12.34375 16.78125 12.386719 C 16.710938 12.433594 16.644531 12.476562 16.578125 12.527344 C 16.511719 12.574219 16.445312 12.621094 16.382812 12.675781 C 16.320312 12.722656 16.261719 12.777344 16.199219 12.835938 C 16.140625 12.890625 16.082031 12.949219 16.027344 13.007812 L 21.53125 15.011719 C 21.960938 14.484375 22.4375 13.972656 22.972656 13.667969 C 23.773438 13.210938 24.792969 13.722656 25.570312 14.015625 C 26.367188 14.3125 27.238281 14.625 27.777344 15.3125 C 28.328125 16.023438 28.722656 16.910156 29.105469 17.765625 L 31.097656 18.492188 C 31.089844 18.445312 31.082031 18.402344 31.070312 18.359375 Z M 27.910156 16.394531 C 27.664062 15.914062 27.421875 15.457031 26.96875 15.136719 C 26.597656 14.875 26.132812 14.695312 25.710938 14.53125 C 24.832031 14.183594 23.660156 13.589844 22.84375 14.316406 C 22.546875 14.585938 22.265625 14.875 21.996094 15.179688 L 28.488281 17.542969 C 28.296875 17.15625 28.105469 16.773438 27.910156 16.394531 Z M 31.070312 18.359375 C 31.046875 18.269531 31.027344 18.183594 31 18.097656 C 30.988281 18.054688 30.976562 18.011719 30.960938 17.96875 C 30.933594 17.882812 30.90625 17.796875 30.875 17.710938 C 30.84375 17.628906 30.808594 17.542969 30.773438 17.457031 C 30.761719 17.421875 30.742188 17.382812 30.726562 17.347656 C 30.65625 17.175781 30.570312 17.003906 30.484375 16.828125 C 30.445312 16.753906 30.40625 16.675781 30.363281 16.597656 C 30.332031 16.53125 30.296875 16.464844 30.257812 16.398438 C 30.226562 16.335938 30.191406 16.277344 30.15625 16.21875 C 29.839844 15.652344 29.5 15.097656 29.214844 14.542969 C 28.382812 12.90625 27.15625 11.621094 25.246094 11.363281 C 24.308594 11.234375 23.332031 11.390625 22.386719 11.398438 C 21.460938 11.40625 20.53125 11.378906 19.605469 11.472656 C 19.542969 11.480469 19.476562 11.488281 19.40625 11.496094 C 19.367188 11.503906 19.328125 11.507812 19.292969 11.515625 C 19.226562 11.523438 19.160156 11.535156 19.09375 11.546875 C 19.019531 11.554688 18.945312 11.570312 18.871094 11.585938 C 18.789062 11.601562 18.707031 11.617188 18.625 11.636719 C 18.621094 11.636719 18.617188 11.640625 18.609375 11.640625 C 18.535156 11.660156 18.460938 11.675781 18.386719 11.695312 C 18.382812 11.699219 18.378906 11.699219 18.375 11.699219 C 18.296875 11.722656 18.21875 11.746094 18.136719 11.769531 C 18.132812 11.769531 18.125 11.773438 18.117188 11.777344 C 18.046875 11.796875 17.972656 11.824219 17.902344 11.847656 C 17.902344 11.847656 17.898438 11.847656 17.894531 11.851562 C 17.816406 11.878906 17.738281 11.90625 17.664062 11.9375 C 17.589844 11.964844 17.519531 11.996094 17.445312 12.03125 C 17.4375 12.035156 17.425781 12.039062 17.417969 12.042969 C 17.347656 12.074219 17.277344 12.105469 17.210938 12.140625 C 17.136719 12.179688 17.066406 12.21875 16.996094 12.257812 C 16.992188 12.257812 16.992188 12.257812 16.988281 12.261719 C 16.917969 12.300781 16.847656 12.34375 16.78125 12.386719 C 16.710938 12.433594 16.644531 12.476562 16.578125 12.527344 C 16.511719 12.574219 16.445312 12.621094 16.382812 12.675781 C 16.320312 12.722656 16.261719 12.777344 16.199219 12.835938 C 16.140625 12.890625 16.082031 12.949219 16.027344 13.007812 L 21.53125 15.011719 C 21.960938 14.484375 22.4375 13.972656 22.972656 13.667969 C 23.773438 13.210938 24.792969 13.722656 25.570312 14.015625 C 26.367188 14.3125 27.238281 14.625 27.777344 15.3125 C 28.328125 16.023438 28.722656 16.910156 29.105469 17.765625 L 31.097656 18.492188 C 31.089844 18.445312 31.082031 18.402344 31.070312 18.359375 Z M 27.910156 16.394531 C 27.664062 15.914062 27.421875 15.457031 26.96875 15.136719 C 26.597656 14.875 26.132812 14.695312 25.710938 14.53125 C 24.832031 14.183594 23.660156 13.589844 22.84375 14.316406 C 22.546875 14.585938 22.265625 14.875 21.996094 15.179688 L 28.488281 17.542969 C 28.296875 17.15625 28.105469 16.773438 27.910156 16.394531 Z M 15.144531 2.332031 C 15.117188 2.320312 15.089844 2.3125 15.0625 2.304688 L 14.953125 2.265625 L 14.953125 2.269531 C 14.832031 2.238281 14.707031 2.234375 14.578125 2.222656 C 13.402344 2.132812 12.578125 3.207031 12.230469 4.285156 C 14.054688 4.730469 16.125 5.191406 17.949219 4.828125 C 18.582031 4.703125 19.21875 4.429688 19.699219 3.984375 Z M 20.144531 4.148438 C 19.710938 4.613281 19.125 4.941406 18.519531 5.132812 C 17.421875 5.472656 16.234375 5.367188 15.113281 5.226562 C 14.109375 5.101562 13.109375 4.921875 12.121094 4.699219 C 12.070312 4.9375 12.046875 5.167969 12.046875 5.378906 L 12.039062 5.371094 C 12.039062 5.398438 12.042969 5.425781 12.042969 5.453125 C 12.042969 5.507812 12.039062 5.5625 12.039062 5.617188 C 12.039062 5.878906 12.066406 6.136719 12.113281 6.378906 C 12.132812 6.472656 12.152344 6.570312 12.167969 6.667969 C 12.292969 7.449219 12.484375 7.800781 12.636719 8.171875 C 13.632812 7.980469 14.710938 8.0625 15.6875 8.128906 C 17.457031 8.242188 19.207031 8.535156 20.964844 8.738281 C 22.613281 8.925781 24.644531 9.339844 26.011719 8.15625 C 26.484375 7.75 26.90625 7.265625 27.28125 6.738281 Z M 31.070312 18.359375 C 31.046875 18.269531 31.027344 18.183594 31 18.097656 C 30.988281 18.054688 30.976562 18.011719 30.960938 17.96875 C 30.933594 17.882812 30.90625 17.796875 30.875 17.710938 C 30.84375 17.628906 30.808594 17.542969 30.773438 17.457031 C 30.761719 17.421875 30.742188 17.382812 30.726562 17.347656 C 30.65625 17.175781 30.570312 17.003906 30.484375 16.828125 C 30.445312 16.753906 30.40625 16.675781 30.363281 16.597656 C 30.332031 16.53125 30.296875 16.464844 30.257812 16.398438 C 30.226562 16.335938 30.191406 16.277344 30.15625 16.21875 C 29.839844 15.652344 29.5 15.097656 29.214844 14.542969 C 28.382812 12.90625 27.15625 11.621094 25.246094 11.363281 C 24.308594 11.234375 23.332031 11.390625 22.386719 11.398438 C 21.460938 11.40625 20.53125 11.378906 19.605469 11.472656 C 19.542969 11.480469 19.476562 11.488281 19.40625 11.496094 C 19.367188 11.503906 19.328125 11.507812 19.292969 11.515625 C 19.226562 11.523438 19.160156 11.535156 19.09375 11.546875 C 19.019531 11.554688 18.945312 11.570312 18.871094 11.585938 C 18.789062 11.601562 18.707031 11.617188 18.625 11.636719 C 18.621094 11.636719 18.617188 11.640625 18.609375 11.640625 C 18.535156 11.660156 18.460938 11.675781 18.386719 11.695312 C 18.382812 11.699219 18.378906 11.699219 18.375 11.699219 C 18.296875 11.722656 18.21875 11.746094 18.136719 11.769531 C 18.132812 11.769531 18.125 11.773438 18.117188 11.777344 C 18.046875 11.796875 17.972656 11.824219 17.902344 11.847656 C 17.902344 11.847656 17.898438 11.847656 17.894531 11.851562 C 17.816406 11.878906 17.738281 11.90625 17.664062 11.9375 C 17.589844 11.964844 17.519531 11.996094 17.445312 12.03125 C 17.4375 12.035156 17.425781 12.039062 17.417969 12.042969 C 17.347656 12.074219 17.277344 12.105469 17.210938 12.140625 C 17.136719 12.179688 17.066406 12.21875 16.996094 12.257812 C 16.992188 12.257812 16.992188 12.257812 16.988281 12.261719 C 16.917969 12.300781 16.847656 12.34375 16.78125 12.386719 C 16.710938 12.433594 16.644531 12.476562 16.578125 12.527344 C 16.511719 12.574219 16.445312 12.621094 16.382812 12.675781 C 16.320312 12.722656 16.261719 12.777344 16.199219 12.835938 C 16.140625 12.890625 16.082031 12.949219 16.027344 13.007812 L 21.53125 15.011719 C 21.960938 14.484375 22.4375 13.972656 22.972656 13.667969 C 23.773438 13.210938 24.792969 13.722656 25.570312 14.015625 C 26.367188 14.3125 27.238281 14.625 27.777344 15.3125 C 28.328125 16.023438 28.722656 16.910156 29.105469 17.765625 L 31.097656 18.492188 C 31.089844 18.445312 31.082031 18.402344 31.070312 18.359375 Z M 27.910156 16.394531 C 27.664062 15.914062 27.421875 15.457031 26.96875 15.136719 C 26.597656 14.875 26.132812 14.695312 25.710938 14.53125 C 24.832031 14.183594 23.660156 13.589844 22.84375 14.316406 C 22.546875 14.585938 22.265625 14.875 21.996094 15.179688 L 28.488281 17.542969 C 28.296875 17.15625 28.105469 16.773438 27.910156 16.394531 Z M 31.070312 18.359375 C 31.046875 18.269531 31.027344 18.183594 31 18.097656 C 30.988281 18.054688 30.976562 18.011719 30.960938 17.96875 C 30.933594 17.882812 30.90625 17.796875 30.875 17.710938 C 30.84375 17.628906 30.808594 17.542969 30.773438 17.457031 C 30.761719 17.421875 30.742188 17.382812 30.726562 17.347656 C 30.65625 17.175781 30.570312 17.003906 30.484375 16.828125 C 30.445312 16.753906 30.40625 16.675781 30.363281 16.597656 C 30.332031 16.53125 30.296875 16.464844 30.257812 16.398438 C 30.226562 16.335938 30.191406 16.277344 30.15625 16.21875 C 29.839844 15.652344 29.5 15.097656 29.214844 14.542969 C 28.382812 12.90625 27.15625 11.621094 25.246094 11.363281 C 24.308594 11.234375 23.332031 11.390625 22.386719 11.398438 C 21.460938 11.40625 20.53125 11.378906 19.605469 11.472656 C 19.542969 11.480469 19.476562 11.488281 19.40625 11.496094 C 19.367188 11.503906 19.328125 11.507812 19.292969 11.515625 C 19.226562 11.523438 19.160156 11.535156 19.09375 11.546875 C 19.019531 11.554688 18.945312 11.570312 18.871094 11.585938 C 18.789062 11.601562 18.707031 11.617188 18.625 11.636719 C 18.621094 11.636719 18.617188 11.640625 18.609375 11.640625 C 18.535156 11.660156 18.460938 11.675781 18.386719 11.695312 C 18.382812 11.699219 18.378906 11.699219 18.375 11.699219 C 18.296875 11.722656 18.21875 11.746094 18.136719 11.769531 C 18.132812 11.769531 18.125 11.773438 18.117188 11.777344 C 18.046875 11.796875 17.972656 11.824219 17.902344 11.847656 C 17.902344 11.847656 17.898438 11.847656 17.894531 11.851562 C 17.816406 11.878906 17.738281 11.90625 17.664062 11.9375 C 17.589844 11.964844 17.519531 11.996094 17.445312 12.03125 C 17.4375 12.035156 17.425781 12.039062 17.417969 12.042969 C 17.347656 12.074219 17.277344 12.105469 17.210938 12.140625 C 17.136719 12.179688 17.066406 12.21875 16.996094 12.257812 C 16.992188 12.257812 16.992188 12.257812 16.988281 12.261719 C 16.917969 12.300781 16.847656 12.34375 16.78125 12.386719 C 16.710938 12.433594 16.644531 12.476562 16.578125 12.527344 C 16.511719 12.574219 16.445312 12.621094 16.382812 12.675781 C 16.320312 12.722656 16.261719 12.777344 16.199219 12.835938 C 16.140625 12.890625 16.082031 12.949219 16.027344 13.007812 L 21.53125 15.011719 C 21.960938 14.484375 22.4375 13.972656 22.972656 13.667969 C 23.773438 13.210938 24.792969 13.722656 25.570312 14.015625 C 26.367188 14.3125 27.238281 14.625 27.777344 15.3125 C 28.328125 16.023438 28.722656 16.910156 29.105469 17.765625 L 31.097656 18.492188 C 31.089844 18.445312 31.082031 18.402344 31.070312 18.359375 Z M 27.910156 16.394531 C 27.664062 15.914062 27.421875 15.457031 26.96875 15.136719 C 26.597656 14.875 26.132812 14.695312 25.710938 14.53125 C 24.832031 14.183594 23.660156 13.589844 22.84375 14.316406 C 22.546875 14.585938 22.265625 14.875 21.996094 15.179688 L 28.488281 17.542969 C 28.296875 17.15625 28.105469 16.773438 27.910156 16.394531 Z M 31.070312 18.359375 C 31.046875 18.269531 31.027344 18.183594 31 18.097656 C 30.988281 18.054688 30.976562 18.011719 30.960938 17.96875 C 30.933594 17.882812 30.90625 17.796875 30.875 17.710938 C 30.84375 17.628906 30.808594 17.542969 30.773438 17.457031 C 30.761719 17.421875 30.742188 17.382812 30.726562 17.347656 C 30.65625 17.175781 30.570312 17.003906 30.484375 16.828125 C 30.445312 16.753906 30.40625 16.675781 30.363281 16.597656 C 30.332031 16.53125 30.296875 16.464844 30.257812 16.398438 C 30.226562 16.335938 30.191406 16.277344 30.15625 16.21875 C 29.839844 15.652344 29.5 15.097656 29.214844 14.542969 C 28.382812 12.90625 27.15625 11.621094 25.246094 11.363281 C 24.308594 11.234375 23.332031 11.390625 22.386719 11.398438 C 21.460938 11.40625 20.53125 11.378906 19.605469 11.472656 C 19.542969 11.480469 19.476562 11.488281 19.40625 11.496094 C 19.367188 11.503906 19.328125 11.507812 19.292969 11.515625 C 19.226562 11.523438 19.160156 11.535156 19.09375 11.546875 C 19.019531 11.554688 18.945312 11.570312 18.871094 11.585938 C 18.789062 11.601562 18.707031 11.617188 18.625 11.636719 C 18.621094 11.636719 18.617188 11.640625 18.609375 11.640625 C 18.535156 11.660156 18.460938 11.675781 18.386719 11.695312 C 18.382812 11.699219 18.378906 11.699219 18.375 11.699219 C 18.296875 11.722656 18.21875 11.746094 18.136719 11.769531 C 18.132812 11.769531 18.125 11.773438 18.117188 11.777344 C 18.046875 11.796875 17.972656 11.824219 17.902344 11.847656 C 17.902344 11.847656 17.898438 11.847656 17.894531 11.851562 C 17.816406 11.878906 17.738281 11.90625 17.664062 11.9375 C 17.589844 11.964844 17.519531 11.996094 17.445312 12.03125 C 17.4375 12.035156 17.425781 12.039062 17.417969 12.042969 C 17.347656 12.074219 17.277344 12.105469 17.210938 12.140625 C 17.136719 12.179688 17.066406 12.21875 16.996094 12.257812 C 16.992188 12.257812 16.992188 12.257812 16.988281 12.261719 C 16.917969 12.300781 16.847656 12.34375 16.78125 12.386719 C 16.710938 12.433594 16.644531 12.476562 16.578125 12.527344 C 16.511719 12.574219 16.445312 12.621094 16.382812 12.675781 C 16.320312 12.722656 16.261719 12.777344 16.199219 12.835938 C 16.140625 12.890625 16.082031 12.949219 16.027344 13.007812 L 21.53125 15.011719 C 21.960938 14.484375 22.4375 13.972656 22.972656 13.667969 C 23.773438 13.210938 24.792969 13.722656 25.570312 14.015625 C 26.367188 14.3125 27.238281 14.625 27.777344 15.3125 C 28.328125 16.023438 28.722656 16.910156 29.105469 17.765625 L 31.097656 18.492188 C 31.089844 18.445312 31.082031 18.402344 31.070312 18.359375 Z M 27.910156 16.394531 C 27.664062 15.914062 27.421875 15.457031 26.96875 15.136719 C 26.597656 14.875 26.132812 14.695312 25.710938 14.53125 C 24.832031 14.183594 23.660156 13.589844 22.84375 14.316406 C 22.546875 14.585938 22.265625 14.875 21.996094 15.179688 L 28.488281 17.542969 C 28.296875 17.15625 28.105469 16.773438 27.910156 16.394531 Z M 20.089844 17.140625 C 20.105469 17.191406 20.125 17.242188 20.144531 17.292969 L 20.230469 17.34375 C 20.179688 17.277344 20.128906 17.207031 20.089844 17.140625 Z M 25.140625 19.167969 C 25.136719 19.164062 25.132812 19.160156 25.132812 19.152344 C 25.132812 19.15625 25.136719 19.164062 25.140625 19.167969 C 25.148438 19.183594 25.15625 19.199219 25.164062 19.214844 C 25.15625 19.199219 25.148438 19.183594 25.140625 19.167969 Z M 27.910156 16.394531 C 27.664062 15.914062 27.421875 15.457031 26.96875 15.136719 C 26.597656 14.875 26.132812 14.695312 25.710938 14.53125 C 24.832031 14.183594 23.660156 13.589844 22.84375 14.316406 C 22.546875 14.585938 22.265625 14.875 21.996094 15.179688 L 28.488281 17.542969 C 28.296875 17.15625 28.105469 16.773438 27.910156 16.394531 Z M 31.070312 18.359375 C 31.046875 18.269531 31.027344 18.183594 31 18.097656 C 30.988281 18.054688 30.976562 18.011719 30.960938 17.96875 C 30.933594 17.882812 30.90625 17.796875 30.875 17.710938 C 30.84375 17.628906 30.808594 17.542969 30.773438 17.457031 C 30.761719 17.421875 30.742188 17.382812 30.726562 17.347656 C 30.65625 17.175781 30.570312 17.003906 30.484375 16.828125 C 30.445312 16.753906 30.40625 16.675781 30.363281 16.597656 C 30.332031 16.53125 30.296875 16.464844 30.257812 16.398438 C 30.226562 16.335938 30.191406 16.277344 30.15625 16.21875 C 29.839844 15.652344 29.5 15.097656 29.214844 14.542969 C 28.382812 12.90625 27.15625 11.621094 25.246094 11.363281 C 24.308594 11.234375 23.332031 11.390625 22.386719 11.398438 C 21.460938 11.40625 20.53125 11.378906 19.605469 11.472656 C 19.542969 11.480469 19.476562 11.488281 19.40625 11.496094 C 19.367188 11.503906 19.328125 11.507812 19.292969 11.515625 C 19.226562 11.523438 19.160156 11.535156 19.09375 11.546875 C 19.019531 11.554688 18.945312 11.570312 18.871094 11.585938 C 18.789062 11.601562 18.707031 11.617188 18.625 11.636719 C 18.621094 11.636719 18.617188 11.640625 18.609375 11.640625 C 18.535156 11.660156 18.460938 11.675781 18.386719 11.695312 C 18.382812 11.699219 18.378906 11.699219 18.375 11.699219 C 18.296875 11.722656 18.21875 11.746094 18.136719 11.769531 C 18.132812 11.769531 18.125 11.773438 18.117188 11.777344 C 18.046875 11.796875 17.972656 11.824219 17.902344 11.847656 C 17.902344 11.847656 17.898438 11.847656 17.894531 11.851562 C 17.816406 11.878906 17.738281 11.90625 17.664062 11.9375 C 17.589844 11.964844 17.519531 11.996094 17.445312 12.03125 C 17.4375 12.035156 17.425781 12.039062 17.417969 12.042969 C 17.347656 12.074219 17.277344 12.105469 17.210938 12.140625 C 17.136719 12.179688 17.066406 12.21875 16.996094 12.257812 C 16.992188 12.257812 16.992188 12.257812 16.988281 12.261719 C 16.917969 12.300781 16.847656 12.34375 16.78125 12.386719 C 16.710938 12.433594 16.644531 12.476562 16.578125 12.527344 C 16.511719 12.574219 16.445312 12.621094 16.382812 12.675781 C 16.320312 12.722656 16.261719 12.777344 16.199219 12.835938 C 16.140625 12.890625 16.082031 12.949219 16.027344 13.007812 L 21.53125 15.011719 C 21.960938 14.484375 22.4375 13.972656 22.972656 13.667969 C 23.773438 13.210938 24.792969 13.722656 25.570312 14.015625 C 26.367188 14.3125 27.238281 14.625 27.777344 15.3125 C 28.328125 16.023438 28.722656 16.910156 29.105469 17.765625 L 31.097656 18.492188 C 31.089844 18.445312 31.082031 18.402344 31.070312 18.359375 Z M 31.070312 18.359375 C 31.046875 18.269531 31.027344 18.183594 31 18.097656 C 30.988281 18.054688 30.976562 18.011719 30.960938 17.96875 C 30.933594 17.882812 30.90625 17.796875 30.875 17.710938 C 30.84375 17.628906 30.808594 17.542969 30.773438 17.457031 C 30.761719 17.421875 30.742188 17.382812 30.726562 17.347656 C 30.65625 17.175781 30.570312 17.003906 30.484375 16.828125 C 30.445312 16.753906 30.40625 16.675781 30.363281 16.597656 C 30.332031 16.53125 30.296875 16.464844 30.257812 16.398438 C 30.226562 16.335938 30.191406 16.277344 30.15625 16.21875 C 29.839844 15.652344 29.5 15.097656 29.214844 14.542969 C 28.382812 12.90625 27.15625 11.621094 25.246094 11.363281 C 24.308594 11.234375 23.332031 11.390625 22.386719 11.398438 C 21.460938 11.40625 20.53125 11.378906 19.605469 11.472656 C 19.542969 11.480469 19.476562 11.488281 19.40625 11.496094 C 19.367188 11.503906 19.328125 11.507812 19.292969 11.515625 C 19.226562 11.523438 19.160156 11.535156 19.09375 11.546875 C 19.019531 11.554688 18.945312 11.570312 18.871094 11.585938 C 18.789062 11.601562 18.707031 11.617188 18.625 11.636719 C 18.621094 11.636719 18.617188 11.640625 18.609375 11.640625 C 18.535156 11.660156 18.460938 11.675781 18.386719 11.695312 C 18.382812 11.699219 18.378906 11.699219 18.375 11.699219 C 18.296875 11.722656 18.21875 11.746094 18.136719 11.769531 C 18.132812 11.769531 18.125 11.773438 18.117188 11.777344 C 18.046875 11.796875 17.972656 11.824219 17.902344 11.847656 C 17.902344 11.847656 17.898438 11.847656 17.894531 11.851562 C 17.816406 11.878906 17.738281 11.90625 17.664062 11.9375 C 17.589844 11.964844 17.519531 11.996094 17.445312 12.03125 C 17.4375 12.035156 17.425781 12.039062 17.417969 12.042969 C 17.347656 12.074219 17.277344 12.105469 17.210938 12.140625 C 17.136719 12.179688 17.066406 12.21875 16.996094 12.257812 C 16.992188 12.257812 16.992188 12.257812 16.988281 12.261719 C 16.917969 12.300781 16.847656 12.34375 16.78125 12.386719 C 16.710938 12.433594 16.644531 12.476562 16.578125 12.527344 C 16.511719 12.574219 16.445312 12.621094 16.382812 12.675781 C 16.320312 12.722656 16.261719 12.777344 16.199219 12.835938 C 16.140625 12.890625 16.082031 12.949219 16.027344 13.007812 L 21.53125 15.011719 C 21.960938 14.484375 22.4375 13.972656 22.972656 13.667969 C 23.773438 13.210938 24.792969 13.722656 25.570312 14.015625 C 26.367188 14.3125 27.238281 14.625 27.777344 15.3125 C 28.328125 16.023438 28.722656 16.910156 29.105469 17.765625 L 31.097656 18.492188 C 31.089844 18.445312 31.082031 18.402344 31.070312 18.359375 Z M 27.910156 16.394531 C 27.664062 15.914062 27.421875 15.457031 26.96875 15.136719 C 26.597656 14.875 26.132812 14.695312 25.710938 14.53125 C 24.832031 14.183594 23.660156 13.589844 22.84375 14.316406 C 22.546875 14.585938 22.265625 14.875 21.996094 15.179688 L 28.488281 17.542969 C 28.296875 17.15625 28.105469 16.773438 27.910156 16.394531 Z M 20.089844 17.140625 C 20.105469 17.191406 20.125 17.242188 20.144531 17.292969 L 20.230469 17.34375 C 20.179688 17.277344 20.128906 17.207031 20.089844 17.140625 Z M 25.140625 19.167969 C 25.136719 19.164062 25.132812 19.160156 25.132812 19.152344 C 25.132812 19.15625 25.136719 19.164062 25.140625 19.167969 C 25.148438 19.183594 25.15625 19.199219 25.164062 19.214844 C 25.15625 19.199219 25.148438 19.183594 25.140625 19.167969 Z M 27.910156 16.394531 C 27.664062 15.914062 27.421875 15.457031 26.96875 15.136719 C 26.597656 14.875 26.132812 14.695312 25.710938 14.53125 C 24.832031 14.183594 23.660156 13.589844 22.84375 14.316406 C 22.546875 14.585938 22.265625 14.875 21.996094 15.179688 L 28.488281 17.542969 C 28.296875 17.15625 28.105469 16.773438 27.910156 16.394531 Z M 31.070312 18.359375 C 31.046875 18.269531 31.027344 18.183594 31 18.097656 C 30.988281 18.054688 30.976562 18.011719 30.960938 17.96875 C 30.933594 17.882812 30.90625 17.796875 30.875 17.710938 C 30.84375 17.628906 30.808594 17.542969 30.773438 17.457031 C 30.761719 17.421875 30.742188 17.382812 30.726562 17.347656 C 30.65625 17.175781 30.570312 17.003906 30.484375 16.828125 C 30.445312 16.753906 30.40625 16.675781 30.363281 16.597656 C 30.332031 16.53125 30.296875 16.464844 30.257812 16.398438 C 30.226562 16.335938 30.191406 16.277344 30.15625 16.21875 C 29.839844 15.652344 29.5 15.097656 29.214844 14.542969 C 28.382812 12.90625 27.15625 11.621094 25.246094 11.363281 C 24.308594 11.234375 23.332031 11.390625 22.386719 11.398438 C 21.460938 11.40625 20.53125 11.378906 19.605469 11.472656 C 19.542969 11.480469 19.476562 11.488281 19.40625 11.496094 C 19.367188 11.503906 19.328125 11.507812 19.292969 11.515625 C 19.226562 11.523438 19.160156 11.535156 19.09375 11.546875 C 19.019531 11.554688 18.945312 11.570312 18.871094 11.585938 C 18.789062 11.601562 18.707031 11.617188 18.625 11.636719 C 18.621094 11.636719 18.617188 11.640625 18.609375 11.640625 C 18.535156 11.660156 18.460938 11.675781 18.386719 11.695312 C 18.382812 11.699219 18.378906 11.699219 18.375 11.699219 C 18.296875 11.722656 18.21875 11.746094 18.136719 11.769531 C 18.132812 11.769531 18.125 11.773438 18.117188 11.777344 C 18.046875 11.796875 17.972656 11.824219 17.902344 11.847656 C 17.902344 11.847656 17.898438 11.847656 17.894531 11.851562 C 17.816406 11.878906 17.738281 11.90625 17.664062 11.9375 C 17.589844 11.964844 17.519531 11.996094 17.445312 12.03125 C 17.4375 12.035156 17.425781 12.039062 17.417969 12.042969 C 17.347656 12.074219 17.277344 12.105469 17.210938 12.140625 C 17.136719 12.179688 17.066406 12.21875 16.996094 12.257812 C 16.992188 12.257812 16.992188 12.257812 16.988281 12.261719 C 16.917969 12.300781 16.847656 12.34375 16.78125 12.386719 C 16.710938 12.433594 16.644531 12.476562 16.578125 12.527344 C 16.511719 12.574219 16.445312 12.621094 16.382812 12.675781 C 16.320312 12.726562 16.257812 12.78125 16.199219 12.835938 C 16.140625 12.890625 16.082031 12.949219 16.027344 13.007812 L 21.53125 15.011719 C 21.960938 14.484375 22.4375 13.972656 22.972656 13.667969 C 23.773438 13.210938 24.792969 13.722656 25.570312 14.015625 C 26.367188 14.3125 27.238281 14.625 27.777344 15.3125 C 28.328125 16.023438 28.722656 16.910156 29.105469 17.765625 L 31.097656 18.492188 C 31.089844 18.445312 31.082031 18.402344 31.070312 18.359375 Z M 27.910156 16.394531 C 27.664062 15.914062 27.421875 15.457031 26.96875 15.136719 C 26.597656 14.875 26.132812 14.695312 25.710938 14.53125 C 24.832031 14.183594 23.660156 13.589844 22.84375 14.316406 C 22.546875 14.585938 22.265625 14.875 21.996094 15.179688 L 28.488281 17.542969 C 28.296875 17.15625 28.105469 16.773438 27.910156 16.394531 Z M 4.691406 35.9375 C 4.4375 35.824219 4.1875 36.046875 4.007812 36.246094 C 3.769531 36.511719 3.53125 36.777344 3.292969 37.046875 C 3.21875 37.128906 3.144531 37.214844 3.09375 37.3125 C 3.027344 37.441406 3.007812 37.589844 2.992188 37.734375 C 2.960938 37.996094 2.933594 38.265625 2.851562 38.515625 C 2.789062 38.710938 2.691406 38.894531 2.648438 39.09375 C 2.601562 39.289062 2.617188 39.519531 2.753906 39.671875 C 3 39.855469 3.355469 39.785156 3.507812 39.519531 C 4 38.65625 4.433594 37.761719 4.804688 36.84375 C 4.886719 36.644531 4.964844 36.4375 4.914062 36.222656 C 4.886719 36.097656 4.808594 35.988281 4.691406 35.9375 Z M 2.609375 24.925781 C 2.582031 24.804688 2.503906 24.691406 2.386719 24.640625 C 2.132812 24.527344 1.882812 24.75 1.703125 24.949219 C 1.464844 25.214844 1.230469 25.484375 0.992188 25.75 C 0.917969 25.832031 0.839844 25.917969 0.789062 26.015625 C 0.726562 26.148438 0.707031 26.292969 0.6875 26.4375 C 0.65625 26.703125 0.632812 26.96875 0.550781 27.21875 C 0.484375 27.414062 0.390625 27.597656 0.34375 27.796875 C 0.300781 27.996094 0.316406 28.222656 0.453125 28.375 C 0.695312 28.5625 1.050781 28.488281 1.207031 28.222656 C 1.699219 27.359375 2.132812 26.464844 2.5 25.546875 C 2.582031 25.347656 2.660156 25.140625 2.609375 24.925781 Z M 31.992188 30.054688 C 31.65625 29.9375 31.332031 30.226562 31.097656 30.488281 C 30.777344 30.851562 30.453125 31.210938 30.132812 31.574219 C 30.0625 31.648438 29.992188 31.730469 29.933594 31.816406 C 29.75 31.054688 29.613281 30.289062 29.746094 29.535156 C 29.9375 28.46875 30.648438 27.574219 31.074219 26.574219 C 31.410156 25.792969 31.535156 24.949219 31.480469 24.109375 L 18.785156 19.488281 L 17.847656 19.144531 C 16.90625 19.761719 16.273438 20.824219 15.359375 21.523438 C 14.585938 22.117188 13.640625 22.429688 12.714844 22.730469 C 12.539062 22.789062 12.367188 22.84375 12.191406 22.902344 C 11.964844 22.976562 11.726562 22.957031 11.503906 22.882812 C 11.5 22.882812 11.5 22.878906 11.5 22.878906 C 11.105469 22.746094 10.578125 22.882812 10.507812 22.234375 C 10.492188 22.082031 10.527344 21.929688 10.589844 21.789062 C 10.890625 21.113281 10.3125 20.3125 9.613281 20.28125 C 8.925781 20.246094 8.386719 20.828125 7.902344 21.320312 C 7.347656 21.894531 6.730469 22.40625 6.070312 22.855469 C 5.492188 23.246094 4.878906 23.589844 4.382812 24.074219 C 3.605469 24.835938 3.1875 25.878906 2.789062 26.886719 L 2.800781 26.925781 C 2.777344 26.949219 2.753906 26.972656 2.730469 27 C 1.394531 28.425781 0.9375 30.871094 2.285156 32.289062 C 3.289062 33.347656 4.9375 33.503906 6.382812 33.285156 C 6.941406 33.199219 7.527344 33.074219 8.0625 33.253906 C 9.382812 33.695312 9.46875 35.46875 9.9375 36.773438 C 10.753906 39.050781 13.597656 40.367188 15.871094 39.511719 C 17.027344 39.078125 17.972656 38.191406 19.125 37.75 C 20.386719 37.265625 21.785156 37.355469 23.125 37.511719 C 24.46875 37.667969 25.828125 37.886719 27.15625 37.648438 C 28.484375 37.40625 29.804688 36.601562 30.230469 35.324219 C 30.246094 35.277344 30.257812 35.230469 30.269531 35.179688 C 31 33.933594 31.640625 32.636719 32.179688 31.296875 C 32.265625 31.078125 32.355469 30.851562 32.34375 30.617188 C 32.335938 30.382812 32.210938 30.136719 31.992188 30.054688 Z M 10.691406 19.652344 C 10.660156 19.449219 10.753906 19.265625 10.875 19.113281 C 11.109375 18.8125 11.445312 18.453125 11.847656 18.5625 C 12.589844 18.871094 12.128906 19.253906 11.980469 19.40625 C 11.835938 19.550781 11.679688 19.683594 11.507812 19.796875 C 11.300781 19.941406 11.011719 20.058594 10.808594 19.875 C 10.746094 19.816406 10.707031 19.738281 10.691406 19.652344 " fill-opacity="1" fill-rule="nonzero"/></g></svg>