<svg xmlns="http://www.w3.org/2000/svg" xmlns:xlink="http://www.w3.org/1999/xlink" width="56" zoomAndPan="magnify" viewBox="0 0 42.75 42.749999" height="56" preserveAspectRatio="xMidYMid meet" version="1.0"><defs><clipPath id="405b28155e"><path d="M 10 7 L 36.703125 7 L 36.703125 42.5 L 10 42.5 Z M 10 7 " clip-rule="nonzero"/></clipPath><clipPath id="835048261e"><path d="M 5.953125 31 L 9 31 L 9 33 L 5.953125 33 Z M 5.953125 31 " clip-rule="nonzero"/></clipPath></defs><path fill="#000000" d="M 13.191406 9.15625 C 13.246094 9.46875 13.542969 9.675781 13.851562 9.621094 L 23.308594 7.953125 C 23.617188 7.898438 23.824219 7.601562 23.769531 7.289062 L 22.78125 1.671875 C 22.605469 0.679688 21.664062 0.0195312 20.671875 0.195312 L 13.675781 1.429688 C 12.6875 1.605469 12.023438 2.550781 12.199219 3.539062 Z M 13.191406 9.15625 " fill-opacity="1" fill-rule="nonzero"/><path fill="#000000" d="M 22.492188 11.332031 C 22.515625 11.480469 22.648438 11.585938 22.792969 11.585938 C 22.8125 11.585938 22.828125 11.582031 22.847656 11.582031 L 24.476562 11.292969 C 24.644531 11.261719 24.753906 11.105469 24.726562 10.9375 C 24.695312 10.769531 24.539062 10.65625 24.371094 10.6875 L 22.742188 10.976562 C 22.574219 11.003906 22.460938 11.164062 22.492188 11.332031 Z M 22.492188 11.332031 " fill-opacity="1" fill-rule="nonzero"/><path fill="#000000" d="M 20.226562 38.628906 L 18.882812 38.867188 C 18.714844 38.894531 18.601562 39.054688 18.632812 39.222656 C 18.660156 39.371094 18.789062 39.476562 18.933594 39.476562 C 18.953125 39.476562 18.972656 39.476562 18.988281 39.472656 L 20.335938 39.234375 C 20.5 39.203125 20.613281 39.046875 20.585938 38.878906 C 20.554688 38.710938 20.394531 38.597656 20.226562 38.628906 Z M 20.226562 38.628906 " fill-opacity="1" fill-rule="nonzero"/><g clip-path="url(#405b28155e)"><path fill="#000000" d="M 36.574219 30.996094 L 33.671875 14.515625 C 33.542969 13.789062 33.140625 13.15625 32.535156 12.730469 C 31.929688 12.304688 31.195312 12.144531 30.46875 12.273438 L 27.785156 12.746094 L 27.460938 10.90625 C 27.378906 10.425781 27.125 9.996094 26.75 9.691406 L 24.683594 7.996094 C 24.550781 7.886719 24.359375 7.90625 24.25 8.039062 C 24.144531 8.171875 24.164062 8.363281 24.292969 8.472656 L 26.363281 10.167969 C 26.621094 10.378906 26.796875 10.679688 26.855469 11.011719 L 27.234375 13.15625 L 30.992188 34.476562 L 31.328125 36.402344 C 31.34375 36.488281 31.351562 36.578125 31.355469 36.664062 L 21.890625 38.335938 C 21.722656 38.363281 21.609375 38.523438 21.640625 38.691406 C 21.667969 38.839844 21.796875 38.945312 21.941406 38.945312 C 21.960938 38.945312 21.976562 38.945312 21.996094 38.941406 L 31.28125 37.300781 C 31.234375 37.46875 31.167969 37.625 31.078125 37.773438 L 29.777344 39.96875 C 29.648438 40.1875 29.433594 40.335938 29.1875 40.378906 L 19.40625 42.105469 C 19.160156 42.148438 18.90625 42.082031 18.714844 41.921875 L 16.738281 40.304688 C 16.367188 40.003906 16.121094 39.574219 16.035156 39.101562 L 11.5625 13.710938 C 11.554688 13.667969 11.550781 13.621094 11.546875 13.578125 L 21.023438 11.902344 C 21.191406 11.875 21.304688 11.714844 21.273438 11.546875 C 21.246094 11.378906 21.085938 11.269531 20.917969 11.296875 L 11.648438 12.933594 C 11.671875 12.871094 11.703125 12.808594 11.738281 12.746094 L 13.101562 10.445312 C 13.1875 10.300781 13.140625 10.113281 12.996094 10.023438 C 12.847656 9.9375 12.660156 9.984375 12.574219 10.132812 L 11.207031 12.433594 C 10.960938 12.847656 10.871094 13.339844 10.957031 13.816406 L 15.429688 39.210938 C 15.539062 39.828125 15.863281 40.386719 16.347656 40.78125 L 18.324219 42.398438 C 18.589844 42.617188 18.917969 42.734375 19.257812 42.734375 C 19.34375 42.734375 19.429688 42.726562 19.511719 42.710938 L 29.292969 40.984375 C 29.714844 40.910156 30.085938 40.65625 30.304688 40.285156 L 31.605469 38.089844 C 31.925781 37.550781 32.042969 36.914062 31.933594 36.296875 L 31.648438 34.671875 L 34.332031 34.199219 C 35.058594 34.070312 35.691406 33.667969 36.117188 33.0625 C 36.539062 32.457031 36.703125 31.722656 36.574219 30.996094 Z M 34.226562 33.59375 L 31.542969 34.066406 L 27.894531 13.351562 L 30.574219 12.878906 C 31.140625 12.777344 31.710938 12.902344 32.183594 13.234375 C 32.652344 13.5625 32.964844 14.054688 33.066406 14.621094 L 35.96875 31.101562 C 36.175781 32.269531 35.394531 33.386719 34.226562 33.59375 Z M 34.226562 33.59375 " fill-opacity="1" fill-rule="nonzero"/></g><path fill="#000000" d="M 11.867188 37.921875 C 11.726562 37.824219 11.535156 37.855469 11.433594 37.992188 L 10.09375 39.847656 C 9.996094 39.984375 10.027344 40.179688 10.164062 40.277344 C 10.21875 40.316406 10.28125 40.335938 10.34375 40.335938 C 10.4375 40.335938 10.53125 40.292969 10.59375 40.207031 L 11.933594 38.351562 C 12.035156 38.214844 12.003906 38.023438 11.867188 37.921875 Z M 11.867188 37.921875 " fill-opacity="1" fill-rule="nonzero"/><g clip-path="url(#835048261e)"><path fill="#000000" d="M 8.542969 31.632812 L 6.253906 31.699219 C 6.085938 31.703125 5.953125 31.847656 5.957031 32.015625 C 5.960938 32.183594 6.097656 32.316406 6.265625 32.316406 C 6.265625 32.316406 6.269531 32.316406 6.273438 32.316406 L 8.5625 32.25 C 8.730469 32.242188 8.863281 32.101562 8.859375 31.933594 C 8.855469 31.761719 8.710938 31.628906 8.542969 31.632812 Z M 8.542969 31.632812 " fill-opacity="1" fill-rule="nonzero"/></g><path fill="#000000" d="M 26.691406 4.53125 C 26.722656 4.542969 26.757812 4.546875 26.789062 4.546875 C 26.917969 4.546875 27.039062 4.46875 27.082031 4.339844 L 27.828125 2.171875 C 27.882812 2.011719 27.796875 1.835938 27.636719 1.78125 C 27.476562 1.726562 27.300781 1.8125 27.246094 1.972656 L 26.5 4.140625 C 26.445312 4.300781 26.527344 4.476562 26.691406 4.53125 Z M 26.691406 4.53125 " fill-opacity="1" fill-rule="nonzero"/><path fill="#000000" d="M 31.59375 9.601562 C 31.625 9.601562 31.660156 9.597656 31.691406 9.585938 L 33.863281 8.859375 C 34.023438 8.804688 34.109375 8.628906 34.054688 8.46875 C 34.003906 8.308594 33.828125 8.21875 33.667969 8.273438 L 31.496094 9 C 31.335938 9.054688 31.25 9.230469 31.300781 9.390625 C 31.34375 9.519531 31.464844 9.601562 31.59375 9.601562 Z M 31.59375 9.601562 " fill-opacity="1" fill-rule="nonzero"/></svg>